<?xml version="1.0" encoding="UTF-8"?>
<svg version="1.1" viewBox="0 0 1488 1468" width="1280" height="1280" xmlns="http://www.w3.org/2000/svg">
<path transform="translate(0)" d="m0 0h1488v1468h-1488z" fill="#DBB57D"/>
<path transform="translate(438)" d="m0 0h590v343l-2 1-10-8-11-11-8-7-9-9-8-7-10-9-8-7h-6l-10 8-29 29h-2v2l-8 7-8 8h-2l-1 3-4 1-5-3-10-9-11-9-9-7v-2l-4-2-12-11-11-8-7-6-7-1-13 10-12 13-15 16-8 7-6 7-6 5-5-1-16-13-17-13-14-12-13-9-5-5-7-3-6 1-16 12-11 9-10 8-11 8-16 12-9 6-5-1-11-8-15-12-9-7-14-11-15-12-9-6h-7l-6 2-14 11-10 9-14 11-13 10-7 5h-2v2l-6 4h-5l-1-2v-336z" fill="#09A7E1"/>
<path transform="translate(95,690)" d="m0 0 10 3 24 13 22 12 29 15 28 13 31 14 32 13 37 14 35 12 39 12 36 10 56 13 45 9 50 8 50 6 67 5 26 1h59l46-2 53-4 56-7 49-8 44-9 64-16 31-9 55-18 30-11 40-16 3-1h13l9 5 5 8 1 5-3 9-7 8-9 7-21 14-24 15-25 14-20 11-16 8-24 11-42 17-42 15-32 10-37 10-49 11-40 7-43 6-46 4-42 2h-35l-42-2-46-4-39-5-41-7-37-8-39-10-39-12-35-12-37-15-25-11-29-14-20-10-22-12-24-14-21-13-33-22-14-10-19-14-16-13-10-8-13-11-8-6v-2l-4-2-11-10-4-8 1-6 6-7z" fill="#010000"/>
<path transform="translate(1277,664)" d="m0 0h32l30 3 25 6 12 6 5 6 3 9v27l-6 36-8 29-8 22-11 24-9 16-13 19-11 13-7 8-12 11-8 4h-6l-5-4v-7l15-40 11-30 10-35 5-23 1-7v-18l-4-9-5-5-10-5-18-3-11-1h-34l-43 3-37 4h-14l-4-4v-7l7-8 15-10 15-8 21-8 20-6 26-5z" fill="#010000"/>
<path transform="translate(515,281)" d="m0 0 5 1 11 8 12 9 11 9 14 11 13 10 11 9v2l-4-2-16-13-11-8-11-9-10-8-13-10-5-3h-7l-6 2-5 4-2-1 10-9z" fill="#010000"/>
<path transform="translate(817,281)" d="m0 0 5 1 10 9 14 12 10 8 9 8 10 8 10 9 4 4-1 2-11-10-11-9-9-7v-2l-4-2-12-11-11-8-7-6-7-1-4 3-2-1z" fill="#010000"/>
<path transform="translate(678,283)" d="m0 0 5 3 12 9 14 11 11 9 9 8h-3l-13-10-9-8-13-9-5-5-7-3-8 1 5-5z" fill="#010000"/>
<path transform="translate(959,280)" d="m0 0 8 6 18 18 8 7 12 12h-3l-14-14-8-7-10-9-8-7h-6l-5 4-2-1 8-8z" fill="#010000"/>
<path transform="translate(657,298)" d="m0 0 2 1-14 12-13 10-14 10-11 8-7 5-4-1 14-9 12-9 26-20z" fill="#010000"/>
<path transform="translate(495,297)" d="m0 0 2 1-12 11-14 11-9 7-2-1 13-11 20-16z" fill="#010000"/>
</svg>
