<?xml version="1.0" encoding="UTF-8"?>
<svg version="1.1" viewBox="0 0 880 880" width="1280" height="1280" xmlns="http://www.w3.org/2000/svg">
<path transform="translate(0)" d="m0 0h880v880h-880z" fill="#0967B5"/>
<path transform="translate(230,141)" d="m0 0h416l14 3 19 7 10 5 2 2v39l4 4 36 24 1 2v474l-4 10-9 9-8 4-5 1h-171l1-11 11-62 4-20 1-1 52-1 7-3 5-5 6-9 5-13 3-16v-13l-3-10-6-5-3-1-51-1v-8l7-39 5-16 7-14 9-11 11-9 13-6 15-3 28-1 13-2 8-5 2-3 1-10-3-19-5-18-6-11-7-4-9-3-6-1h-30l-22 3-19 5-19 7-19 10-14 10-11 10-4 4h-2l-2 4-9 10-10 15-8 16-6 15-6 19-8 39-2 15-2 1-94 1-33 2-52 6h-10l1 2 30 5 40 6 15 4 2 3v9l-47 3 2 2 31 4 17 3 2 3v8l-1 1-66 3-62 2-32 2-5 1 70 2 108 4 70 1 1 3-5 25-11 56-2 10-253 1-10-2-10-6-7-8-3-7-1-7-1-129v-199l1-139 8-7 18-13 16-11v-39l3-3 16-8 18-6z" fill="#FCEA3B"/>
<path transform="translate(620,370)" d="m0 0h30l13 3 6 3 5 5 6 12 5 20 2 14-1 10-5 6-6 3-13 2-28 1-15 3-16 8-10 9-7 10-7 14-5 18-7 43h51l6 3 5 6 2 8v13l-4 20-8 16-4 5-7 5-4 1-52 1-10 53-7 40h52v1h-140l-21-1 1-10 8-41 7-36 1-6-70-1-136-5-42-1-1-2 18-2 49-2 82-3 17-1v-8l-1-2-31-5-17-2-3-3 1-1 31-2h16l-1-9-3-3-19-4-45-7-19-3-1-3 53-6 22-2 20-1 96-1v-10l8-40 6-20 6-16 8-16 7-11 10-13 6-7h2l2-4 8-7 13-10 13-8 19-9 26-8 17-3z" fill="#2570EF"/>
<path transform="translate(230,141)" d="m0 0h416l14 3 19 7 10 5 2 2v39l4 4 36 24 1 2v8l-9-1h-581v-5l8-7 18-13 16-11v-39l3-3 16-8 18-6z" fill="#FCCD23"/>
<path transform="translate(422,191)" d="m0 0h21l32 2 8 2 18 2 17 6 8 2 14 6 14 7 10 6 6 2v2l10 2v1l5 1v1h-301v-1l5-1v-1l6-2 10-6 5-1 5-5 5-2 7-4 20-7 12-2 15-5 20-3h7l5-1z" fill="#ECA313"/>
<path transform="translate(309,257)" d="m0 0h5l3 5 3 9 2 16 6 18 5 9 8 10 7 8 12 10 13 8 24 10 28 6h27l22-4 17-5 14-6 11-7 10-9h2l2-4 8-9 7-12 6-18 2-10 1-20 5-5 6 1 5 5 3 6v13l-5 21-8 19-9 14-1 3-4 4-8 10-4 4-5 3-9 3-9 5-8 4-14 5-15 4-20 3h-36l-18-4-22-8-17-8-9-4-8-6-12-12-11-14-8-13-7-17-2-7-2-13v-10l3-8z" fill="#FCFCEC"/>
<path transform="translate(422,191)" d="m0 0h21l32 2 8 2 18 2 17 6 8 2 14 6 14 7 10 6 6 2v2l10 2v1l5 1v1h-39l-7-1v-2l-5-1-12-5-11-5-21-7-18-4-28-3h-25l-28 4-24 6-13 4-1 2-10 3-13 5-4 1v2l-6 1h-36v-1l5-1v-1l6-2 10-6 5-1 5-5 5-2 7-4 20-7 12-2 15-5 20-3h7l5-1z" fill="#F0B41A"/>
<path transform="translate(548,339)" d="m0 0h2l-2 5-9 14-12 14-9 8-15 11-17 9-24 8-13 2h-22l-17-4-9-4-7-3-17-9-17-12-10-9v-2h-2l-10-13-6-9v-2l4 2 11 11 24 12 20 8 21 6 6 1h36l20-3 19-5 15-6 16-9 12-4 2-4 8-10z" fill="#FCE738"/>
<path transform="translate(143,233)" d="m0 0h582l7 2-1 4h-580l-9-2z" fill="#FDFDED"/>
<path transform="translate(682,153)" d="m0 0 5 2 4 3v39l4 4 36 24 1 2v8l-9-1h-62l-1-4v-50l5 2 11 7 7 4 5 3v-34l-5-5-2-3z" fill="#FDE93A"/>
<path transform="translate(212,180)" d="m0 0h3v54h-73v-5l8-7 18-13 16-11h2v-2l11-6 13-9z" fill="#FDEA3B"/>
<path transform="translate(548,339)" d="m0 0h2l-2 5-9 14-12 14-9 8-15 11-17 9-24 8-13 2h-22l-17-4-9-4-7-3-17-9-17-12-10-9v-2h-2l-10-13-6-9v-2l4 2 11 11 8 10 12 11 13 8 9 4 10 3 9 2 14 2h35l11-2 18-4 11-1 13-8 11-9 3-1 2-4 9-10 3-5 8-10z" fill="#ECA615"/>
<path transform="translate(343,616)" d="m0 0h18l-2 2-10 3v2l4 4 4 2h-38l-82-3-42-1-1-2 18-2 49-2z" fill="#0657B1"/>
<path transform="translate(363,554)" d="m0 0h95l-1 2-23 1-58 1-19 1-13 2h-6v2l-4 3v4 3l2 1-2 1h-9l-43-7-13-2-1-3 53-6 22-2z" fill="#0B68B9"/>
<path transform="translate(167,726)" d="m0 0h259v2l-41 1v1l-15 2-63 1h-13l-4-1-5 1v-2h-11l2-2h-103l-6-2z" fill="#0353AB"/>
<path transform="translate(620,370)" d="m0 0h30l13 3 6 3 5 5 6 12 5 20 2 14-1 10-2 3h-2l2-6h-2l-1-10-1-14-4-11-2-8-3-6v-2h-2v-2l-5-2-7-3-18-1h-24l-25 4-12 3-7 2-21 9-9 6-5 3-14 12-5 1 6-7 15-11 14-8 18-8 23-7 17-3z" fill="#105FC4"/>
<path transform="translate(313,174)" d="m0 0 7 1 5 4 1 3v12l-6 6h-9l-5-3-3-6v-9l2-5z" fill="#D4A02F"/>
<path transform="translate(676,164)" d="m0 0 4 1v2l3 1 2 8 2-2v22l-4-2-10-6-11-7-1-6 7-7z" fill="#F0B41A"/>
<path transform="translate(566,554)" d="m0 0h52l6 3 5 6 2 8v13l-4 20-8 16h-2l2-5 4-8v-7l1-8v-29l-4-2-7-2-5-1-39-1-3-1z" fill="#075DB3"/>
<path transform="translate(587,725)" d="m0 0h69l47 1v1l-6 1h-160l-3-2z" fill="#0557AF"/>
<path transform="translate(610,371)" d="m0 0h31v2l8 1v1h-34l-25 4-12 3-7 2-21 9-9 6-5 3-14 12-5 1 6-7 15-11 14-8 18-8 23-7z" fill="#0B60BA"/>
<path transform="translate(321,593)" d="m0 0h36l4 9-2 1h-11l-29-4-10-2v-3z" fill="#0657B1"/>
<path transform="translate(486,390)" d="m0 0h5l3 3-11 5-24 8-8 1h-19l-11-2 1-4 18 2 7-1 1-1 9-1 16-4 6-2-2-2z" fill="#F0B41A"/>
<path transform="translate(558,174)" d="m0 0 7 1 7 6 2 5-1 7-5 5-4 2h-8l-6-5-3-5 1-7 2-2v9l4 5 3 1 1-2-2-2 1-6 2-5 5 2 5 1-1-5-12-3z" fill="#E4A41D"/>
<path transform="translate(343,616)" d="m0 0h18l-2 2-10 3v2l4 4 4 2h-38v-1l7-1 1-2-1-4 5-1v-2h-13v-1z" fill="#0C66BB"/>
<path transform="translate(201,170)" d="m0 0 9 2v3l2 1 2 3h-2v2l-11 7-9 6-4 1v-2l2-1 2-10 3-7h2l1-4z" fill="#F0B319"/>
<path transform="translate(363,554)" d="m0 0h95l-1 2-20 1h-97l3-2z" fill="#085DB6"/>
<path transform="translate(555,174)" d="m0 0 3 1 10 4 1 5-4 1-6-4-2 10 2 4-3 2-5-4-2-3v-7l-2 6h-1l1-8 5-5z" fill="#ECA514"/>
<path transform="translate(629,566)" d="m0 0h1l1 5v13l-4 20-8 16h-2l2-5 4-8v-7l1-8 1-25 3 1 1 4z" fill="#0D68BD"/>
<path transform="translate(610,371)" d="m0 0h31v2l8 1v1h-34l-20 3-5-1 3-3z" fill="#0760B3"/>
<path transform="translate(288,561)" d="m0 0h11l1 3-5 5-13-1-13-2-1-3z" fill="#095BB7"/>
<path transform="translate(212,621)" d="m0 0h15v1l15 1v2h9v1l-56-1-1-2z" fill="#146ACB"/>
<path transform="translate(183,158)" d="m0 0h1l1 23v17l-6 4h-3l1-5 4-7 1-31z" fill="#085AB5"/>
<path transform="translate(548,339)" d="m0 0h2l-2 5-9 14-12 14-4 4-2-1 1-4h2l2-4 9-10 3-5 8-10z" fill="#EDA614"/>
<path transform="translate(458,543)" d="m0 0h1v10l-2 1-111 1v-1l13-1 95-1 3-2z" fill="#FDFDED"/>
<path transform="translate(681,402)" d="m0 0 2 2 3 15 1 13-2 7-3 1 2-6h-2l-1-10z" fill="#0E67BF"/>
<path transform="translate(492,443)" d="m0 0 1 4-1 3h-3l-1 7-3 1-1 6-1 2h-2l-1 6-4 11-6 18h-1l1-8 5-16 9-21z" fill="#0A5DB9"/>
<path transform="translate(350,593)" d="m0 0h7l4 9-2 1h-11v-2l-4-4 2-3z" fill="#0967B6"/>
<path transform="translate(682,153)" d="m0 0 5 2 4 3v18l-1 18-2 1v-33l-5-5-2-3z" fill="#FDDF3A"/>
<path transform="translate(566,554)" d="m0 0h52v1l-10 1v1h-39l-3-1z" fill="#0B68B9"/>
<path transform="translate(673,383)" d="m0 0 3 1 5 12 1 10v4h-2l-4-11-2-8-1-6z" fill="#0A62B9"/>
<path transform="translate(143,707)" d="m0 0 3 1 6 8 9 6 5 2 7 1v1l-10 1-11-6-4-3v-2h-2v-3h-2z" fill="#0A5CBA"/>
<path transform="translate(552,181)" d="m0 0 4 1 3-1-2 10 2 4-3 2-5-4-1-5h2l-1-5z" fill="#F1B51A"/>
<path transform="translate(516,415)" d="m0 0 1 3-3 1-2 4h-2l-1 4-7 8-5 5-4 3 2-4 8-11 7-8h2l2-4z" fill="#0C64BC"/>
<path transform="translate(321,593)" d="m0 0h16v1l-15 1 14 1v1l-25 1-3-3 1-1z" fill="#1166C7"/>
<path transform="translate(306,178)" d="m0 0 1 2-2 4 1 8 1 3 5 2 5 1 8-4-2 4-3 2h-9l-5-3-3-6v-9z" fill="#2470ED"/>
<path transform="translate(661,373)" d="m0 0 7 2 5 4 2 5-2 4-2-5h-2v-2l-5-2-3-3z" fill="#0E67C0"/>
<path transform="translate(603,372)" d="m0 0h12l-8 4-12 2-5-1 3-3z" fill="#095FB6"/>
<path transform="translate(205,143)" d="m0 0 5 1-4 4-12 5-3-1 2-3 4-2h3v-2z" fill="#0858B4"/>
<path transform="translate(492,443)" d="m0 0 1 4-1 3h-3l-1 7-3 1-1 6-1 2h-2l-1 4 1-7 8-16z" fill="#085FB4"/>
<path transform="translate(549,181)" d="m0 0 1 3v6l4 5 4 2h10l-4 3h-8l-6-5-3-5 1-7z" fill="#2671F0"/>
<path transform="translate(308,181)" d="m0 0 2 4-2 7 6 3v3l-5-2-4-4 1-9z" fill="#F0B41A"/>
<path transform="translate(167,726)" d="m0 0h24l-1 2-17 1-6-2z" fill="#0459AE"/>
<path transform="translate(462,532)" d="m0 0h1v12h-2v9l-2 1v-11l2-10z" fill="#095DB8"/>
<path transform="translate(726,712)" d="m0 0 2 1-7 7-3 4-4 1h-8v-1l9-3 6-4z" fill="#0F60C3"/>
<path transform="translate(561,177)" d="m0 0 5 1 3 3v3l-4 1-6-4z" fill="#F0B219"/>
<path transform="translate(520,373)" d="m0 0 2 2-4 5-5 4h-3l2-4z" fill="#C6992E"/>
<path transform="translate(432,692)" d="m0 0h1v9l-1 2v9l-2 2-1-2 1-11z" fill="#0C67BD"/>
<path transform="translate(682,153)" d="m0 0 5 2 3 2v6l-7-6-2-3z" fill="#FDEB5B"/>
<path transform="translate(440,630)" d="m0 0h5l1 2-4 16h-1l1-10 1-6z" fill="#0D65BE"/>
<path transform="translate(558,174)" d="m0 0 7 1 5 5-1 2-1-3-12-3z" fill="#2470EC"/>
<path transform="translate(516,415)" d="m0 0 1 3-3 1-2 4h-2v3l-4-1 4-5h2l2-4z" fill="#0B61BA"/>
<path transform="translate(603,372)" d="m0 0h12l-4 2-3 1h-7z" fill="#0757B3"/>
<path transform="translate(492,443)" d="m0 0 1 4-1 3h-3v4h-2v2l-2-1 6-11z" fill="#0D63BF"/>
<path transform="translate(548,339)" d="m0 0h2l-2 5-5 5-2 1 2-4z" fill="#F0AE17"/>
</svg>
