<?xml version="1.0" encoding="UTF-8"?>
<svg version="1.1" viewBox="0 0 1280 1280" width="1280" height="1280" xmlns="http://www.w3.org/2000/svg">
<path transform="translate(0)" d="m0 0h1280v1280h-1280z" fill="#5D259C"/>
<path transform="translate(541,140)" d="m0 0h11l14 2 14 5 15 9 13 12 24 28 10 11 9 11 9 10 9 11 10 11 7 8 12 14 11 13 10 11 9 11 11 12 9 11 13 15 10 11 9 11 11 12 9 11 13 15 11 12 6 5 100 1 12 3 10 5 8 6 9 12 5 13 1 5v52l-4 10-5 4-4 2-7 1-91 1-1 579-2 7-7 8-6 3-5 1h-68l-14-3-14-7-10-9-8-9-7-14-3-10-1-10v-54l1-76-18 6-23 6-16 3-22 3-15 1h-32l-26-3-24-5-24-8-21-10-18-12-11-9-17-17-7-9-12-18-11-21-9-24-6-23-4-22-3-27-1-15v-203h-59l-14-3-13-7-7-6-9-14-4-14-1-9v-41l4-10 8-7 4-2 6-1h363l-17-17-8-7-20-20-8-7-14-14-8-7-12-12-8-7-10-10-8-7-19-19-8-7-15-15-8-7-10-10-8-7-8-8-8-7-19-19-8-7-15-15-3-5v-11l3-5 5-4 16-6 47-14 21-6z" fill="#FEFEFD"/>
<path transform="translate(546,536)" d="m0 0h172l1 3v280l-8 4-20 6-25 5-16 2h-21l-19-3-17-5-15-8-12-11-7-10-6-12-5-17-3-20v-213z" fill="#5D259C"/>
</svg>
