<?xml version="1.0" encoding="UTF-8"?>
<svg version="1.1" viewBox="0 0 1600 1600" width="1280" height="1280" xmlns="http://www.w3.org/2000/svg">
<path transform="translate(0)" d="m0 0h1600v1600h-1600z" fill="#FEF605"/>
<path transform="translate(729,742)" d="m0 0h5l1 2 1 14 7-4 8-5 12-4 6-1h11l13 3 11 7 5 4 7 10 5 10 3 10 1 15-3 16-5 13-6 10-6 7-12 9-11 5-4 1h-19l-9-2-10-6-3-1v17l1 32 4 7 9 3 1 7-4 1h-53l-13-1-1-1v-5l5-3 6-3 3-9v-122l-3-13-9-2-2-3v-6l2-2 32-6z" fill="#271F1D"/>
<path transform="translate(372,677)" d="m0 0 5 1 1 2 4 44 1 6-2 2-7 1-3-4-6-14-8-11-9-7-8-4-4-1h-12l-8 3-6 4-7 10-1 4v11l5 9 8 6 10 5 26 10 21 10 9 7 7 9 5 11 2 13-1 15-4 13-6 10-14 14-14 7-15 4-5 1h-13l-14-2-15-5-11-6-5-1-3 9-5 2h-6l-2-43-1-9v-9l1-1h8l4 10 8 17 7 9 11 8 10 4 4 1h16l10-4 9-7 5-11 1-3v-9l-4-9-9-8-17-8-20-8-16-7-12-9-6-7-7-14-1-4v-21l4-13 4-8 7-8 13-9 9-4 10-2 20-1 18 3 12 5 4 1 1-6 4-3z" fill="#271F1D"/>
<path transform="translate(446,747)" d="m0 0h5l2 11h3l14-8 8-3h25l10 3 8 6 5 5 4 7 3 10 1 7 1 62 3 4 8 3 2 3-1 5-5 1-61-1-1-7 8-5 3-2 1-9v-44l-1-17-4-8-5-5-9-1-10 3-7 5v24l1 49 3 6 8 4v6l-5 2-62-1-1-1 1-7 10-5 2-5v-62l-2-7-4-4-7-3-1-6 3-3 28-7z" fill="#271F1D"/>
<path transform="translate(1055,747)" d="m0 0h5l2 3 1 8 4-1 15-8 7-2h24l11 4 8 6 5 6 4 9 2 11 1 63 2 4 7 3 4 2v7h-65l-1-1 1-7 7-5 3-9v-23l-1-33-2-10-4-6-4-3h-15l-9 6h-2l1 73 3 6 8 6v5l-3 1h-63l-2-1 1-7 8-3 3-3 1-3 1-14v-31l-1-20-3-7-10-6-1-5 2-3 21-5 22-6z" fill="#271F1D"/>
<path transform="translate(614,747)" d="m0 0h25l10 3 8 5 5 6 2 5 1 74 1 6 9-1 1-1h5l3 3-1 4-5 4-4 4-6 4-12 4h-9l-13-5-6-5-2-4-5 1-8 5-10 5-11 3h-16l-12-5-6-7-3-9v-8l4-12 5-6 10-7 9-5 16-6 13-4 10-2 1-1v-18l-4-11-6-3h-10l-6 3-3 5-2 14-3 5-5 4-2 1h-9l-6-3-4-5-1-9 3-8 4-5 11-8 13-5 16-4z" fill="#271F1D"/>
<path transform="translate(916,682)" d="m0 0h83v11l-11 3-7 6v138l3 7 5 3 9 3 1 1v7l-1 1h-83l-1-6 4-4 11-4 4-11 1-10v-102l-1-19-3-9-12-3-4-3v-7z" fill="#271F1D"/>
<path transform="translate(1218,747)" d="m0 0h22l16 4 11 6 8 9 3 8-1 7-6 8-6 3-10-1-7-6-8-16-7-8-1-1h-8l-6 5-5 10-3 11v22l5 17 7 11 8 6 10 4h8l11-5 9-6 1-1h5l6 5-2 4-9 8-10 7-11 5-18 4h-15l-15-4-14-7-11-10-9-14-4-16v-18l3-12 7-14 11-11 13-8 12-4z" fill="#271F1D"/>
<path transform="translate(748,762)" d="m0 0h7l9 3 6 5 8 16 3 16-1 16-5 16-7 11-9 5h-9l-8-3-5-7-1-11v-52l5-10 5-4z" fill="#FEF605"/>
<path transform="translate(1307,822)" d="m0 0h14l9 6 5 8 1 5v7l-3 8-6 7-10 4h-8l-8-3-7-7-2-5-1-6v-9l3-6 5-5z" fill="#271F1D"/>
<path transform="translate(618,808)" d="m0 0 5 1 1 7v22l-2 4-7 3h-11l-5-5-2-4v-12l6-9 12-6z" fill="#FEF605"/>
</svg>
